<svg width="103" height="103" viewBox="0 0 103 103" fill="none" xmlns="http://www.w3.org/2000/svg">
<g clip-path="url(#clip0)">
<path d="M70.1256 67.2528C65.5132 61.9537 58.7956 53.8267 58.118 53.0451C57.4132 52.0558 56.4103 51.1884 58.118 49.2188C59.7036 47.4117 65.0343 41.2227 70.1256 35.1285C70.7942 34.3289 70.2521 32.7568 69.2221 32.7568H35.3089C34.2653 32.7568 33.3257 33.4119 33.3257 34.4509V67.9666C33.3257 69.0101 34.2653 69.7103 35.3089 69.7103H69.2221C70.2521 69.7103 70.8123 68.0388 70.1256 67.2528Z" fill="#5265E1"/>
<path d="M51.5 8.36649C60.0312 8.3656 68.3711 10.8946 75.4649 15.6336C82.5588 20.3726 88.088 27.1088 91.3534 34.9904C94.6188 42.8719 95.4736 51.5448 93.8098 59.9122C92.146 68.2795 88.0383 75.9656 82.0061 81.9984C75.974 88.0312 68.2883 92.1397 59.9211 93.8044C51.5539 95.4691 42.881 94.6151 34.9991 91.3506C27.1172 88.0861 20.3804 82.5575 15.6407 75.4642C10.9009 68.3708 8.37103 60.0312 8.37103 51.5C8.38299 40.0647 12.9306 29.1012 21.0162 21.0148C29.1017 12.9284 40.0648 8.37965 51.5 8.36649ZM51.5 0C41.3143 0 31.3573 3.02042 22.8882 8.67931C14.419 14.3382 7.81814 22.3814 3.92023 31.7918C0.0223142 41.2022 -0.997558 51.5571 0.989581 61.5471C2.97672 71.5372 7.88162 80.7136 15.084 87.916C22.2864 95.1184 31.4629 100.023 41.4529 102.01C51.4429 103.998 61.7978 102.978 71.2082 99.0798C80.6186 95.1819 88.6618 88.581 94.3207 80.1119C99.9796 71.6427 103 61.6857 103 51.5C103 37.8413 97.5741 24.7421 87.916 15.084C78.2579 5.42588 65.1587 0 51.5 0V0Z" fill="#5265E1"/>
</g>
<defs>
<clipPath id="clip0">
<rect width="103" height="103" fill="white"/>
</clipPath>
</defs>
</svg>
